<svg width="445" height="445" viewBox="0 0 445 445" fill="none" xmlns="http://www.w3.org/2000/svg">
<circle cx="90" cy="222.5" r="90" fill="black" style="fill:black;fill-opacity:1;"/>
<circle cx="222.5" cy="355" r="90" transform="rotate(-90 222.5 355)" fill="black" style="fill:black;fill-opacity:1;"/>
<circle cx="355" cy="222.5" r="90" fill="black" style="fill:black;fill-opacity:1;"/>
<circle cx="222.5" cy="90" r="90" transform="rotate(-90 222.5 90)" fill="black" style="fill:black;fill-opacity:1;"/>
<path d="M373.617 193.951L378.577 184.5H399.437L361.152 252.958C356.15 261.814 351.189 267.817 346.271 270.967C341.184 274.032 333.637 275.565 323.631 275.565C321.936 275.565 319.392 275.48 316 275.31L319.307 259.983H325.666C328.804 259.983 331.39 259.174 333.425 257.556C335.46 256.024 336.774 253.938 337.368 251.298C337.961 248.148 337.834 243.379 336.986 236.993L329.736 184.5H350.596L351.486 193.824C353.097 216.047 353.945 229.798 354.03 235.077C361.068 219.41 367.597 205.702 373.617 193.951Z" fill="#D75A4F" style="fill:#D75A4F;fill:color(display-p3 0.8431 0.3529 0.3098);fill-opacity:1;"/>
<path d="M110.346 188.5H128.715L100.078 221.263L115.81 255.726H97.9117L94.1437 247.323C93.3273 245.56 91.3805 241.091 88.3033 233.915C86.7961 235.804 82.9967 240.273 76.9051 247.323L69.5574 255.726H51L81.4267 221.452L66.543 188.5H84.5353L88.0207 196.337C88.6487 197.847 89.5279 200.019 90.6583 202.852C91.8515 205.621 92.6993 207.604 93.2017 208.8C93.6413 208.296 94.4577 207.321 95.6509 205.873C96.8441 204.425 97.7233 203.355 98.2885 202.663C99.1049 201.656 100.078 200.46 101.209 199.075C102.402 197.69 103.187 196.777 103.564 196.337L110.346 188.5Z" fill="#D87AD6" style="fill:#D87AD6;fill:color(display-p3 0.8471 0.4784 0.8392);fill-opacity:1;"/>
<path d="M227.747 319.5C239.747 319.5 248.747 322.829 254.746 329.486C260.651 336.314 262.175 345.148 259.318 355.987C258.746 358.035 258.365 359.358 258.175 359.956H203.605C203.415 364.479 204.558 367.936 207.034 370.326C209.605 372.715 213.272 373.91 218.033 373.91C225.271 373.91 230.604 371.435 234.033 366.485H255.175C248.699 381.25 235.604 388.633 215.891 388.633C203.796 388.633 194.844 385.304 189.034 378.647C183.13 371.99 181.558 362.815 184.32 351.122C186.701 341.307 191.749 333.583 199.463 327.95C207.177 322.317 216.605 319.5 227.747 319.5ZM226.033 334.223C216.7 334.223 210.176 338.576 206.462 347.281H239.461C239.747 343.184 238.699 339.984 236.318 337.679C233.938 335.375 230.509 334.223 226.033 334.223Z" fill="#5083ED" style="fill:#5083ED;fill:color(display-p3 0.3137 0.5137 0.9294);fill-opacity:1;"/>
<path d="M240.155 55.5C248.308 55.5 254.091 58.004 257.504 63.012C260.917 68.02 261.486 75.2773 259.211 84.7841L250.109 122.726H227.925L236.884 85.0387C237.832 80.9644 237.5 77.8662 235.888 75.7442C234.277 73.5373 231.622 72.4338 227.925 72.4338C223.753 72.4338 220.15 73.6222 217.117 75.9988C214.083 78.2906 212.045 81.6434 211.002 86.0573L202.185 122.726H180L195.643 57.0279H217.259L215.126 65.9404C222.047 58.9801 230.39 55.5 240.155 55.5Z" fill="#5DCAB8" style="fill:#5DCAB8;fill:color(display-p3 0.3647 0.7922 0.7216);fill-opacity:1;"/>
</svg>
