<svg width="20" height="20" viewBox="0 0 16 18" fill="none" xmlns="http://www.w3.org/2000/svg">
<path id="Vector" d="M8 9.69567C5.28494 9.69567 0 11.2447 0 14.0851C0 15.2618 0.687921 16.3287 1.79605 16.8712C3.24582 17.5811 5.58861 18 8.00999 18C10.2103 18 12.4758 17.6541 14.1953 16.8684C15.2914 16.3669 16 15.275 16 14.0857C16 11.2454 10.7151 9.69567 8 9.69567ZM8 0C6.94028 0 5.92397 0.439106 5.17463 1.22072C4.4253 2.00233 4.00433 3.06243 4.00433 4.16779C4.00433 5.27316 4.4253 6.33325 5.17463 7.11487C5.92397 7.89648 6.94028 8.33558 8 8.33558C9.05972 8.33558 10.076 7.89648 10.8254 7.11487C11.5747 6.33325 11.9957 5.27316 11.9957 4.16779C11.9957 3.06243 11.5747 2.00233 10.8254 1.22072C10.076 0.439106 9.05972 0 8 0Z" fill="black" style="fill:black;fill-opacity:1;"/>
</svg>
