<svg width="20" height="17" viewBox="0 0 20 17" fill="none" xmlns="http://www.w3.org/2000/svg">
<path id="Vector" d="M0.691181 7.08387e-05C0.600877 -0.00125661 0.51122 0.0160841 0.427421 0.0510854C0.343621 0.0860867 0.267349 0.13805 0.203039 0.203957C0.138728 0.269863 0.0876613 0.348397 0.0528054 0.434996C0.0179496 0.521594 0 0.61453 0 0.708401C0 0.802273 0.0179496 0.895208 0.0528054 0.981807C0.0876613 1.06841 0.138728 1.14694 0.203039 1.21285C0.267349 1.27875 0.343621 1.33072 0.427421 1.36572C0.51122 1.40072 0.600877 1.41806 0.691181 1.41673H1.94321C2.27392 1.41673 2.5496 1.65422 2.61227 1.99225L2.74625 2.72179C2.74672 2.72456 2.74664 2.72733 2.74714 2.73009L4.21302 10.7274C4.47834 12.1733 5.69851 13.2222 7.11461 13.2222H15.6206C17.0367 13.2222 18.2573 12.1733 18.5222 10.7274L19.9881 2.72917C20.0258 2.52187 19.9729 2.30827 19.8435 2.14535C19.714 1.98291 19.5212 1.88895 19.3182 1.88895H3.98054L3.95126 1.72755C3.76811 0.729902 2.9205 7.08387e-05 1.94321 7.08387e-05H0.691181ZM8.1874 14.1667C7.82593 14.1667 7.47925 14.3159 7.22365 14.5816C6.96805 14.8473 6.82445 15.2076 6.82445 15.5833C6.82445 15.9591 6.96805 16.3194 7.22365 16.5851C7.47925 16.8507 7.82593 17 8.1874 17C8.54888 17 8.89555 16.8507 9.15115 16.5851C9.40676 16.3194 9.55035 15.9591 9.55035 15.5833C9.55035 15.2076 9.40676 14.8473 9.15115 14.5816C8.89555 14.3159 8.54888 14.1667 8.1874 14.1667ZM14.5478 14.1667C14.1864 14.1667 13.8397 14.3159 13.5841 14.5816C13.3285 14.8473 13.1849 15.2076 13.1849 15.5833C13.1849 15.9591 13.3285 16.3194 13.5841 16.5851C13.8397 16.8507 14.1864 17 14.5478 17C14.9093 17 15.256 16.8507 15.5116 16.5851C15.7672 16.3194 15.9108 15.9591 15.9108 15.5833C15.9108 15.2076 15.7672 14.8473 15.5116 14.5816C15.256 14.3159 14.9093 14.1667 14.5478 14.1667Z" fill="black" style="fill:black;fill-opacity:1;"/>
</svg>
